<svg xmlns="http://www.w3.org/2000/svg" width="280" height="64" role="img" aria-label="Download for macOS">
  <rect width="280" height="64" rx="12" fill="#FF6B35"/>
  <g transform="translate(28,18)" fill="#ffffff">
    <path d="M14.5 4.2c.9-1.1 1.5-2.6 1.3-4.2-1.3.06-2.9.9-3.8 2-.8.95-1.6 2.5-1.4 3.95 1.5.12 3-.75 3.9-1.75zM17.7 15.2c-.03-3.1 2.5-4.6 2.6-4.66-1.4-2.07-3.6-2.36-4.4-2.39-1.9-.19-3.65 1.1-4.6 1.1-.95 0-2.4-1.08-3.95-1.05-2.03.03-3.9 1.18-4.95 3-2.1 3.66-.54 9.07 1.51 12.04 1 1.45 2.2 3.08 3.77 3.02 1.51-.06 2.08-.98 3.91-.98 1.82 0 2.34.98 3.94.95 1.63-.03 2.66-1.48 3.66-2.94 1.15-1.69 1.62-3.32 1.65-3.41-.04-.02-3.16-1.21-3.19-4.79z"/>
  </g>
  <text x="76" y="39" font-family="-apple-system,Segoe UI,Helvetica,Arial,sans-serif" font-size="18" font-weight="600" fill="#ffffff">Download for macOS</text>
</svg>
